<svg xmlns="http://www.w3.org/2000/svg" width="50" height="50" fill="none" viewBox="0 0 50 50">
  <g clip-path="url(#a)">
    <path fill="#021129" d="M28.55.457c-6.851 0-12.947 3.216-16.874 8.215.883.672 1.615 1.563 2.207 2.419 3.323-4.495 8.659-7.416 14.666-7.416 10.054 0 18.233 8.179 18.233 18.232 0 7.328-4.347 13.655-10.596 16.55.704.847 1.32 1.79 1.671 2.78C45.042 37.772 50 30.418 50 21.907 50 10.06 40.396.457 28.55.457Zm4.55 37.881c-1.217-1.105-3.815-3.245-5.775-3.182-.642.021-1.201.275-1.708.585l-.06.038a6.49 6.49 0 0 0-.332.222v.001a19.3 19.3 0 0 0-1.526 1.182l-.006-.006-.063.052a8.9 8.9 0 0 0-.395.364c-.005.004-.01.007-.013.011-.007.006-.01.012-.017.019-.729.708-1.51 1.585-2.507 1.677-1.833.168-3.592-1.32-4.54-2.19a29.686 29.686 0 0 1-5.59-6.973c-.726-1.253-1.624-2.977-1.06-4.711.28-.867 1.12-1.37 1.889-1.872.002 0 .002-.002.003-.002.573-.34 1.27-.888 1.745-1.279.808-.654 1.723-1.475 1.87-2.667.22-1.75-.968-4.135-1.902-5.715-.838-1.418-2.292-3.843-4.049-4.133-.816-.135-1.497.214-2.102.685a38.25 38.25 0 0 0-2.608 2.095c-.149.135-.296.27-.434.403v.002C1.746 15.046-.022 18.009 0 22.15c.032 5.69 2.792 10.18 5.287 13.713 2.644 3.745 6.072 7.585 10.085 10.326 2.237 1.526 4.472 2.762 7.799 3.218 3.643.5 6.243-.428 8.51-1.979.014-.01.025-.014.038-.022a28.767 28.767 0 0 0 2.953-2.276 6.88 6.88 0 0 0 .515-.468l.035-.034-.001-.002c.352-.365.676-.784.772-1.34.296-1.7-1.675-3.84-2.893-4.948Z"/>
    <path fill="#021129" d="M24.828 20.753c-.259.332-.6.687-1.022 1.065a39.88 39.88 0 0 1-1.562 1.316 25.744 25.744 0 0 0-1.751 1.533c-.474.461-.836.88-1.088 1.26-.544.82-.815 1.808-.815 2.962h9.618v-2.404h-6.096a9.48 9.48 0 0 1 .753-.744 52.06 52.06 0 0 1 1.206-1.055 39.259 39.259 0 0 0 2.001-1.785c.547-.526.955-.98 1.226-1.358.29-.41.508-.844.654-1.301.144-.458.217-.955.217-1.491 0-.587-.1-1.131-.303-1.633a3.712 3.712 0 0 0-.88-1.306 4.112 4.112 0 0 0-1.43-.871c-.568-.211-1.215-.317-1.94-.317-.676 0-1.293.111-1.85.332a4.3 4.3 0 0 0-1.453.936c-.411.404-.74.893-.99 1.468a6.002 6.002 0 0 0-.459 1.92h2.641c.025-.41.1-.77.223-1.083.123-.313.276-.573.459-.78a1.76 1.76 0 0 1 .634-.47c.24-.103.492-.155.757-.155.63 0 1.117.168 1.458.506.34.338.51.809.51 1.415 0 .385-.055.738-.164 1.06a3.41 3.41 0 0 1-.554.98Zm12.948 8.137v-3.153h1.779V23.41h-1.78v-8.737H35.76l-6.2 9.03v2.035h5.64v3.152h2.576Zm-5.396-5.482 2.82-4.212v4.212h-2.82Z"/>
  </g>
  <defs>
    <clipPath id="a">
      <path fill="#fff" d="M0 0h50v50H0z"/>
    </clipPath>
  </defs>
</svg>
