<svg xmlns="http://www.w3.org/2000/svg" width="50" height="50" fill="none" viewBox="0 0 50 50">
  <g clip-path="url(#a)">
    <path fill="#021129" d="M14.394 27.145a4.362 4.362 0 1 0 0 8.725 4.367 4.367 0 0 0 4.364-4.363 4.348 4.348 0 0 0-1.279-3.087 4.351 4.351 0 0 0-3.085-1.276Zm0 6.7a2.343 2.343 0 0 1-2.34-2.338 2.34 2.34 0 0 1 4.679 0 2.342 2.342 0 0 1-2.34 2.338Zm23.573-6.7a4.362 4.362 0 1 0 0 8.725 4.364 4.364 0 0 0 4.361-4.363 4.361 4.361 0 0 0-4.36-4.363Zm0 6.7a2.344 2.344 0 0 1-2.34-2.338 2.338 2.338 0 1 1 2.34 2.338Z"/>
    <path fill="#021129" d="M14.397 30.648a.859.859 0 1 0 .002 1.718.859.859 0 0 0-.002-1.718Zm23.57 0a.859.859 0 0 0 0 1.719.86.86 0 0 0 0-1.719Z"/>
    <path fill="#021129" d="M49.621 21.828a1.618 1.618 0 0 0-1.236-.576h-6.932l-3.51-6.11a2.022 2.022 0 0 0-1.751-1.013H19.044c-.62 0-1.207.287-1.59.775l-4.358 5.573a2.02 2.02 0 0 1-1.59.775h-9.89A1.617 1.617 0 0 0 .02 23.127l1.677 6.53a2.015 2.015 0 0 0 1.96 1.52l5.398-.013c.18-2.802 2.492-5.032 5.339-5.032a5.34 5.34 0 0 1 3.802 1.574c.928.925 1.45 2.137 1.537 3.435l12.897-.033c.209-2.774 2.508-4.976 5.336-4.976 2.818 0 5.11 2.188 5.33 4.953l4.014-.01a2.02 2.02 0 0 0 2.004-1.8l.66-6.128a1.609 1.609 0 0 0-.354-1.319Zm-21.982-.245H15.057l4.086-5.226h8.496v5.226Zm2.655 0v-5.226h5.777l3.005 5.226h-8.782Z"/>
  </g>
  <defs>
    <clipPath id="a">
      <path fill="#fff" d="M0 0h50v50H0z"/>
    </clipPath>
  </defs>
</svg>
