<svg xmlns="http://www.w3.org/2000/svg" width="50" height="50" fill="none" viewBox="0 0 50 50">
  <path fill="#021129" d="m44.853 22.643-3.167-3.166c-.541-.542-.979-1.604-.979-2.354v-4.5c0-1.834-1.5-3.334-3.333-3.334h-4.48c-.75 0-1.812-.437-2.354-.979l-3.166-3.166a3.345 3.345 0 0 0-4.709 0L19.457 8.31c-.52.542-1.583.98-2.354.98h-4.48a3.343 3.343 0 0 0-3.333 3.333v4.479c0 .75-.437 1.812-.979 2.354l-3.166 3.167a3.345 3.345 0 0 0 0 4.708l3.166 3.167c.542.541.98 1.604.98 2.354v4.479c0 1.833 1.5 3.333 3.333 3.333h4.479c.75 0 1.812.438 2.354.98l3.167 3.166a3.345 3.345 0 0 0 4.708 0l3.167-3.166c.541-.542 1.604-.98 2.354-.98h4.479c1.833 0 3.333-1.5 3.333-3.333v-4.48c0-.75.438-1.812.98-2.353l3.166-3.167c1.354-1.27 1.354-3.396.042-4.688Zm-28.188-3.895a2.09 2.09 0 0 1 2.084-2.084 2.09 2.09 0 0 1 2.083 2.084 2.076 2.076 0 0 1-2.083 2.083 2.09 2.09 0 0 1-2.084-2.083Zm3.188 13.604a1.545 1.545 0 0 1-1.104.458c-.396 0-.792-.146-1.104-.458a1.572 1.572 0 0 1 0-2.208l12.5-12.5a1.572 1.572 0 0 1 2.208 0 1.572 1.572 0 0 1 0 2.208l-12.5 12.5Zm11.396.979a2.094 2.094 0 0 1-2.104-2.083 2.09 2.09 0 0 1 2.083-2.084 2.09 2.09 0 0 1 2.083 2.084 2.072 2.072 0 0 1-2.062 2.083Z"/>
</svg>
