<svg xmlns="http://www.w3.org/2000/svg" width="50" height="50" fill="none" viewBox="0 0 50 50">
  <path fill="#021129" d="M35.067 41.371c-1.483 0-3.544 2-5.033 2-1.805 0-3.485-2-5.034-2-1.55 0-3.23 2-5.033 2-1.489 0-3.549-2-5.033-2-1.439 0-3.973 1.177-4.778 1.57.002.326.03.665.049.998 1.188-.592 2.964-1.37 4.102-1.37 1.576 0 3.763 2.167 5.346 2.167 1.917 0 3.703-2.167 5.348-2.167s3.43 2.167 5.347 2.167c1.583 0 3.772-2.167 5.347-2.167 1.14 0 2.928.784 4.116 1.377l.032-1.005c-.803-.392-3.338-1.57-4.776-1.57Zm-5.137 5.402c-1.768 0-3.413-2-4.93-2-1.516 0-3.162 2-4.93 2-1.457 0-3.476-2-4.93-2-1.396 0-3.843 1.275-4.656 1.72.105.595.227 1.197.389 1.816 0 0 3.095-1.87 4.709-1.87 1.387 0 3.316 1.998 4.708 1.998 1.688 0 3.26-1.999 4.71-1.999 1.448 0 3.021 2 4.71 2 1.39 0 3.32-1.999 4.706-1.999 1.613 0 4.71 1.871 4.71 1.871.155-.6.284-1.206.388-1.817-.81-.443-3.26-1.719-4.655-1.719-1.454 0-3.472 1.999-4.93 1.999Z"/>
  <path fill="#021129" d="M14.666 40.456c1.522 0 3.637 1.999 5.167 1.999 1.852 0 3.578-2 5.168-2 1.59 0 3.316 2 5.168 2 1.531 0 3.644-2 5.17-2 1.273 0 3.394.854 4.479 1.354-.48-8.94-6.905-14.804-8.973-19.068h.407v-4.687h-.476c.988-2.69 2.84-6.259 1.954-9.94 0 0-.194 0-.52.019v-6.57h-.95v6.653c-1.67.189-4.404.733-6.26 2.316-1.855-1.584-4.59-2.127-6.26-2.316V1.563h-.947v6.57c-.326-.017-.52-.018-.52-.018-.889 3.681.965 7.248 1.954 9.94h-.478v4.687h.408c-2.067 4.264-8.488 10.13-8.97 19.067 1.086-.502 3.203-1.353 4.479-1.353ZM30.47 18.933v2.93h-1.056v.001c2.066 3.846 2.787 10.379 2.787 10.379l-3.825 1.373s-.004-5.43-1.304-11.078c.257-.256.42-.695.498-1.201l1.586 3.496c-.136-1.328-.953-2.813-1.552-3.775.065-.735-.03-1.551-.274-2.125h3.14Zm-6.802-.494c.544-.544 2.45-.544 2.996 0 .552.552.905 3.23 0 4.134-.542.541-2.455.541-2.996 0-.998-.998-.507-3.627 0-4.134Zm-2.555 3.424H19.53v-2.93h3.472c-.229.537-.33 1.289-.286 1.988-.725 1.025-1.247 2.128-1.467 2.581l1.515-2.154c.055.354.15.677.293.926-.728 2.408-1.372 6.57-1.372 6.57l-2.96-.684s.723-3.545 2.39-6.297Z"/>
</svg>
