<?xml version="1.0" encoding="utf-8"?>
<svg viewBox="-0.132 -0.132 22.735 23" fill="none" xmlns="http://www.w3.org/2000/svg">
  <path fill-rule="evenodd" clip-rule="evenodd" d="M0 11.25C0 16.8125 4.0625 21.4375 9.375 22.375L9.43771 22.3248C9.41681 22.3208 9.3959 22.3167 9.375 22.3125V14.375H6.5625V11.25H9.375V8.75C9.375 5.9375 11.1875 4.375 13.75 4.375C14.5625 4.375 15.4375 4.5 16.25 4.625V7.5H14.8125C13.4375 7.5 13.125 8.1875 13.125 9.0625V11.25H16.125L15.625 14.375H13.125V22.3125C13.1041 22.3167 13.0832 22.3208 13.0623 22.3248L13.125 22.375C18.4375 21.4375 22.5 16.8125 22.5 11.25C22.5 5.0625 17.4375 0 11.25 0C5.0625 0 0 5.0625 0 11.25Z" fill="#DCEAFD" transform="matrix(0.9999999999999999, 0, 0, 0.9999999999999999, 0, 0)"/>
</svg>