<svg xmlns="http://www.w3.org/2000/svg" width="50" height="50" fill="none" viewBox="0 0 50 50">
  <path fill="#021129" d="M3.918 23.889c1.506-.052 2.71-.36 3.674-.782a6.714 6.714 0 0 0 3.622 1.053 6.714 6.714 0 0 0 3.622-1.053c.959.428 2.163.73 3.674.782.37.015.62-.38.448-.709-.365-.703-.818-1.928-.818-3.68 0-2.928-.1-9.89-6.926-9.89-6.827 0-6.926 6.962-6.926 9.89 0 1.747-.454 2.971-.819 3.68a.486.486 0 0 0 .449.709ZM1.829 38.325h14.978l.057-.333a7.17 7.17 0 0 1 2.434-4.247 7.228 7.228 0 0 1 1.584-1.011 6.143 6.143 0 0 1-.62-.548 6.433 6.433 0 0 1-1.897-4.58v-.053a9.226 9.226 0 0 0-5.576-1.866H9.636a9.255 9.255 0 0 0-9.12 7.682l-.49 2.825a1.828 1.828 0 0 0 1.803 2.131Zm47.652-4.955a9.255 9.255 0 0 0-9.12-7.682h-3.153c-2.22 0-4.278.787-5.889 2.115a6.483 6.483 0 0 1-2.522 4.93 7.143 7.143 0 0 1 4.029 5.264l.057.334h15.29a1.825 1.825 0 0 0 1.798-2.132l-.49-2.83Zm-18.179 4.955-.01-.068a5.573 5.573 0 0 0-5.488-4.628h-1.897a5.573 5.573 0 0 0-5.493 4.628l-.01.068-.24 1.39a1.3 1.3 0 0 0 1.281 1.523h10.82a1.3 1.3 0 0 0 1.282-1.522l-.245-1.392ZM21.011 30.68a4.91 4.91 0 0 0 3.836 1.84h.067c2.684-.037 4.863-2.263 4.847-4.947a4.916 4.916 0 0 0-2.465-4.231 4.994 4.994 0 0 1-1.866-1.86 5.502 5.502 0 0 1-.437-.986.16.16 0 0 0-.303 0 5.68 5.68 0 0 1-.437.985 5.053 5.053 0 0 1-1.887 1.876 4.903 4.903 0 0 0-2.444 4.253c0 .709.151 1.38.417 1.99.182.386.406.751.672 1.08Zm17.605-6.644a6.857 6.857 0 0 0 6.859-6.858v-6.76a1.66 1.66 0 0 0-2.1-1.6l-8.355 2.304a4.441 4.441 0 0 0-3.262 4.284v1.772a6.857 6.857 0 0 0 6.858 6.858Z"/>
</svg>
