<?xml version="1.0" encoding="utf-8"?>
<svg viewBox="42.466 -0.03 21.91 21.882" fill="none" xmlns="http://www.w3.org/2000/svg">
  <path d="M53.4097 0C50.447 0 50.0752 0.0129548 48.9116 0.0659093C47.7503 0.119091 46.9576 0.302955 46.264 0.572727C45.5465 0.851364 44.9379 1.22409 44.3315 1.83068C43.7247 2.43705 43.352 3.04568 43.0725 3.76295C42.802 4.45682 42.618 5.24977 42.5657 6.41068C42.5136 7.57432 42.5 7.94636 42.5 10.9091C42.5 13.8718 42.5132 14.2425 42.5659 15.4061C42.6193 16.5675 42.8032 17.3602 43.0727 18.0539C43.3516 18.7714 43.7243 19.38 44.3309 19.9864C44.937 20.5932 45.5456 20.9668 46.2626 21.2455C46.9567 21.5152 47.7496 21.6991 48.9107 21.7523C50.0743 21.8052 50.4459 21.8182 53.4083 21.8182C56.3712 21.8182 56.7418 21.8052 57.9054 21.7523C59.0668 21.6991 59.8604 21.5152 60.5545 21.2455C61.2717 20.9668 61.8794 20.5932 62.4855 19.9864C63.0923 19.38 63.465 18.7714 63.7446 18.0541C64.0128 17.3602 64.1968 16.5673 64.2514 15.4064C64.3037 14.2427 64.3173 13.8718 64.3173 10.9091C64.3173 7.94636 64.3037 7.57454 64.2514 6.41091C64.1968 5.24955 64.0128 4.45682 63.7446 3.76318C63.465 3.04568 63.0923 2.43705 62.4855 1.83068C61.8787 1.22386 61.2719 0.851136 60.5538 0.572727C59.8583 0.302955 59.0652 0.119091 57.9039 0.0659093C56.7402 0.0129548 56.3698 0 53.4063 0H53.4097ZM52.4311 1.96591C52.7215 1.96545 53.0456 1.96591 53.4097 1.96591C56.3223 1.96591 56.6675 1.97636 57.8177 2.02864C58.8813 2.07727 59.4586 2.255 59.8431 2.40432C60.3522 2.60205 60.7151 2.83841 61.0967 3.22023C61.4785 3.60204 61.7149 3.96568 61.913 4.47477C62.0624 4.85886 62.2403 5.43614 62.2887 6.49977C62.341 7.64977 62.3524 7.99523 62.3524 10.9066C62.3524 13.818 62.341 14.1634 62.2887 15.3134C62.2401 16.377 62.0624 16.9543 61.913 17.3384C61.7153 17.8475 61.4785 18.21 61.0967 18.5916C60.7149 18.9734 60.3524 19.2098 59.8431 19.4075C59.459 19.5575 58.8813 19.7348 57.8177 19.7834C56.6678 19.8357 56.3223 19.847 53.4097 19.847C50.4968 19.847 50.1516 19.8357 49.0016 19.7834C47.938 19.7343 47.3608 19.5566 46.976 19.4073C46.4669 19.2095 46.1033 18.9732 45.7215 18.5914C45.3397 18.2095 45.1033 17.8468 44.9052 17.3375C44.7558 16.9534 44.5779 16.3761 44.5295 15.3125C44.4772 14.1625 44.4668 13.817 44.4668 10.9039C44.4668 7.99068 44.4772 7.64705 44.5295 6.49705C44.5781 5.43341 44.7558 4.85614 44.9052 4.47159C45.1029 3.9625 45.3397 3.59886 45.7215 3.21704C46.1033 2.83523 46.4669 2.59886 46.976 2.40068C47.3605 2.25068 47.938 2.07341 49.0016 2.02455C50.008 1.97909 50.3979 1.96545 52.4311 1.96318V1.96591ZM59.2327 3.77727C58.51 3.77727 57.9236 4.36295 57.9236 5.08591C57.9236 5.80864 58.51 6.395 59.2327 6.395C59.9554 6.395 60.5417 5.80864 60.5417 5.08591C60.5417 4.36318 59.9554 3.77682 59.2327 3.77682V3.77727ZM53.4097 5.30682C50.3159 5.30682 47.8076 7.81523 47.8076 10.9091C47.8076 14.003 50.3159 16.5102 53.4097 16.5102C56.5034 16.5102 59.0109 14.003 59.0109 10.9091C59.0109 7.81523 56.5032 5.30682 53.4094 5.30682H53.4097ZM53.4097 7.27273C55.4178 7.27273 57.0459 8.90068 57.0459 10.9091C57.0459 12.9173 55.4178 14.5455 53.4097 14.5455C51.4013 14.5455 49.7734 12.9173 49.7734 10.9091C49.7734 8.90068 51.4013 7.27273 53.4097 7.27273Z" fill="#DCEAFD" transform="matrix(0.9999999999999999, 0, 0, 0.9999999999999999, 7.105427357601002e-15, 0)"/>
  <path d="M53.4097 0C50.447 0 50.0752 0.0129548 48.9116 0.0659093C47.7503 0.119091 46.9576 0.302955 46.264 0.572727C45.5465 0.851364 44.9379 1.22409 44.3315 1.83068C43.7247 2.43705 43.352 3.04568 43.0725 3.76295C42.802 4.45682 42.618 5.24977 42.5657 6.41068C42.5136 7.57432 42.5 7.94636 42.5 10.9091C42.5 13.8718 42.5132 14.2425 42.5659 15.4061C42.6193 16.5675 42.8032 17.3602 43.0727 18.0539C43.3516 18.7714 43.7243 19.38 44.3309 19.9864C44.937 20.5932 45.5456 20.9668 46.2626 21.2455C46.9567 21.5152 47.7496 21.6991 48.9107 21.7523C50.0743 21.8052 50.4459 21.8182 53.4083 21.8182C56.3712 21.8182 56.7418 21.8052 57.9054 21.7523C59.0668 21.6991 59.8604 21.5152 60.5545 21.2455C61.2717 20.9668 61.8794 20.5932 62.4855 19.9864C63.0923 19.38 63.465 18.7714 63.7446 18.0541C64.0128 17.3602 64.1968 16.5673 64.2514 15.4064C64.3037 14.2427 64.3173 13.8718 64.3173 10.9091C64.3173 7.94636 64.3037 7.57454 64.2514 6.41091C64.1968 5.24955 64.0128 4.45682 63.7446 3.76318C63.465 3.04568 63.0923 2.43705 62.4855 1.83068C61.8787 1.22386 61.2719 0.851136 60.5538 0.572727C59.8583 0.302955 59.0652 0.119091 57.9039 0.0659093C56.7402 0.0129548 56.3698 0 53.4063 0H53.4097ZM52.4311 1.96591C52.7215 1.96545 53.0456 1.96591 53.4097 1.96591C56.3223 1.96591 56.6675 1.97636 57.8177 2.02864C58.8813 2.07727 59.4586 2.255 59.8431 2.40432C60.3522 2.60205 60.7151 2.83841 61.0967 3.22023C61.4785 3.60204 61.7149 3.96568 61.913 4.47477C62.0624 4.85886 62.2403 5.43614 62.2887 6.49977C62.341 7.64977 62.3524 7.99523 62.3524 10.9066C62.3524 13.818 62.341 14.1634 62.2887 15.3134C62.2401 16.377 62.0624 16.9543 61.913 17.3384C61.7153 17.8475 61.4785 18.21 61.0967 18.5916C60.7149 18.9734 60.3524 19.2098 59.8431 19.4075C59.459 19.5575 58.8813 19.7348 57.8177 19.7834C56.6678 19.8357 56.3223 19.847 53.4097 19.847C50.4968 19.847 50.1516 19.8357 49.0016 19.7834C47.938 19.7343 47.3608 19.5566 46.976 19.4073C46.4669 19.2095 46.1033 18.9732 45.7215 18.5914C45.3397 18.2095 45.1033 17.8468 44.9052 17.3375C44.7558 16.9534 44.5779 16.3761 44.5295 15.3125C44.4772 14.1625 44.4668 13.817 44.4668 10.9039C44.4668 7.99068 44.4772 7.64705 44.5295 6.49705C44.5781 5.43341 44.7558 4.85614 44.9052 4.47159C45.1029 3.9625 45.3397 3.59886 45.7215 3.21704C46.1033 2.83523 46.4669 2.59886 46.976 2.40068C47.3605 2.25068 47.938 2.07341 49.0016 2.02455C50.008 1.97909 50.3979 1.96545 52.4311 1.96318V1.96591ZM59.2327 3.77727C58.51 3.77727 57.9236 4.36295 57.9236 5.08591C57.9236 5.80864 58.51 6.395 59.2327 6.395C59.9554 6.395 60.5417 5.80864 60.5417 5.08591C60.5417 4.36318 59.9554 3.77682 59.2327 3.77682V3.77727ZM53.4097 5.30682C50.3159 5.30682 47.8076 7.81523 47.8076 10.9091C47.8076 14.003 50.3159 16.5102 53.4097 16.5102C56.5034 16.5102 59.0109 14.003 59.0109 10.9091C59.0109 7.81523 56.5032 5.30682 53.4094 5.30682H53.4097ZM53.4097 7.27273C55.4178 7.27273 57.0459 8.90068 57.0459 10.9091C57.0459 12.9173 55.4178 14.5455 53.4097 14.5455C51.4013 14.5455 49.7734 12.9173 49.7734 10.9091C49.7734 8.90068 51.4013 7.27273 53.4097 7.27273Z" fill="#DCEAFD" transform="matrix(0.9999999999999999, 0, 0, 0.9999999999999999, 7.105427357601002e-15, 0)"/>
</svg>