<?xml version="1.0" encoding="utf-8"?>
<svg viewBox="84.308 0 21.27 21.264" fill="none" xmlns="http://www.w3.org/2000/svg">
  <path fill-rule="evenodd" clip-rule="evenodd" d="M85.8247 0C84.9917 0 84.3164 0.675302 84.3164 1.50833V19.7416C84.3164 20.5746 84.9917 21.2499 85.8247 21.2499H104.058C104.891 21.2499 105.566 20.5746 105.566 19.7416V1.50833C105.566 0.675303 104.891 0 104.058 0H85.8247ZM89.0856 6.59895C90.1037 6.59895 90.9291 5.77361 90.9291 4.75551C90.9291 3.73741 90.1037 2.91208 89.0856 2.91208C88.0675 2.91208 87.2422 3.73741 87.2422 4.75551C87.2422 5.77361 88.0675 6.59895 89.0856 6.59895ZM92.6173 7.96129H95.6725V9.36088C95.6725 9.36088 96.5015 7.70276 98.7573 7.70276C100.77 7.70276 102.436 8.69403 102.436 11.7155V18.0869H99.2704V12.4876C99.2704 10.7052 98.3188 10.5091 97.5937 10.5091C96.0889 10.5091 95.8313 11.8072 95.8313 12.7201V18.0869H92.6173V7.96129ZM90.6926 7.96131H87.4787V18.087H90.6926V7.96131Z" fill="#DCEAFD"/>
</svg>