<svg xmlns="http://www.w3.org/2000/svg" width="50" height="50" fill="none" viewBox="0 0 50 50">
  <g clip-path="url(#a)">
    <path fill="#021129" d="M24.999 14.584a16.667 16.667 0 1 1 0 33.333 16.667 16.667 0 0 1 0-33.333Zm0 7.291-2.757 5.584-6.16.896 4.458 4.343-1.052 6.138 5.51-2.898 5.511 2.896-1.052-6.136 4.458-4.346-6.16-.895-2.756-5.582Zm2.083-17.71 10.417.002v6.25l-2.84 2.371a20.699 20.699 0 0 0-7.577-2.269V4.165Zm-4.167 0v6.354a20.698 20.698 0 0 0-7.575 2.267l-2.84-2.369v-6.25l10.416-.002Z"/>
  </g>
  <defs>
    <clipPath id="a">
      <path fill="#fff" d="M0 0h50v50H0z"/>
    </clipPath>
  </defs>
</svg>
