<svg xmlns="http://www.w3.org/2000/svg" width="31" height="30" fill="none" viewBox="0 0 31 30">
  <path fill="#021129" d="M18.912 2.09a1.2 1.2 0 0 1 1.47-.85 12.933 12.933 0 0 1 9.249 9.25 1.202 1.202 0 0 1-.85 1.47 1.2 1.2 0 0 1-1.47-.85 10.553 10.553 0 0 0-7.549-7.55 1.2 1.2 0 0 1-.85-1.47Zm-.35 6.27c2.069.551 3.398 1.88 3.95 3.949a1.2 1.2 0 1 0 2.319-.62c-.768-2.874-2.775-4.88-5.65-5.649a1.2 1.2 0 0 0-.619 2.32Zm12.291 14.302A8.44 8.44 0 0 1 22.471 30c-11.91 0-21.6-9.69-21.6-21.6A8.44 8.44 0 0 1 8.21.018a2.4 2.4 0 0 1 2.493 1.428l3.168 7.072v.018a2.399 2.399 0 0 1-.19 2.264c-.027.04-.056.078-.086.115l-3.123 3.702c1.124 2.283 3.512 4.65 5.825 5.777l3.65-3.107c.037-.03.074-.058.113-.084a2.399 2.399 0 0 1 2.276-.21l.02.01 7.066 3.166a2.4 2.4 0 0 1 1.432 2.493Zm-2.382-.3h-.016l-7.05-3.158-3.653 3.107c-.035.03-.072.058-.11.084a2.4 2.4 0 0 1-2.363.17c-2.81-1.357-5.61-4.136-6.97-6.916a2.4 2.4 0 0 1 .15-2.355.924.924 0 0 1 .086-.115l3.126-3.707-3.15-7.05v-.018A6.03 6.03 0 0 0 3.271 8.4a19.221 19.221 0 0 0 19.2 19.2 6.032 6.032 0 0 0 6-5.24v.002Z"/>
</svg>
