<svg xmlns="http://www.w3.org/2000/svg" width="50" height="50" fill="none" viewBox="0 0 50 50">
  <g clip-path="url(#a)">
    <path fill="#021129" d="M25 0C11.182 0 0 11.181 0 25c0 13.818 11.181 25 25 25 13.818 0 25-11.181 25-25C50 11.182 38.819 0 25 0Zm0 46.74C13.013 46.74 3.26 36.986 3.26 25 3.26 13.013 13.014 3.26 25 3.26c11.987 0 21.74 9.753 21.74 21.74 0 11.987-9.753 21.74-21.74 21.74Z"/>
    <path fill="#021129" d="m5.901 29.253 15.838-9.144-12.222-7.056a19.51 19.51 0 0 0-3.616 16.2ZM44.1 20.747l-15.838 9.144 12.221 7.056a19.51 19.51 0 0 0 3.616-16.2Zm-24.965 22.92V25.379l-12.229 7.06a19.661 19.661 0 0 0 12.229 11.228Zm3.26.724a19.503 19.503 0 0 0 15.827-4.983L22.394 30.27v14.12Zm8.472-38.057v18.288l12.229-7.06A19.661 19.661 0 0 0 30.867 6.334Zm-3.262-.725a19.504 19.504 0 0 0-15.828 4.983l15.828 9.139V5.609Z"/>
  </g>
  <defs>
    <clipPath id="a">
      <path fill="#fff" d="M0 0h50v50H0z"/>
    </clipPath>
  </defs>
</svg>
