<svg xmlns="http://www.w3.org/2000/svg" width="24" height="24" fill="none" viewBox="0 0 24 24">
  <path stroke="#DCEAFD" stroke-linecap="round" stroke-linejoin="round" stroke-width="1.5" d="M23.143 8.571a1.714 1.714 0 0 0-1.714-1.714H19a2 2 0 0 1-1.6-.8l-1.371-1.829a2 2 0 0 0-1.6-.8H9.57a2 2 0 0 0-1.6.8L6.6 6.057a2 2 0 0 1-1.6.8H2.571A1.714 1.714 0 0 0 .857 8.571v10.286a1.714 1.714 0 0 0 1.714 1.714H21.43a1.714 1.714 0 0 0 1.714-1.714V8.571Z"/>
  <path stroke="#DCEAFD" stroke-linecap="round" stroke-linejoin="round" stroke-width="1.5" d="M12 16.714A3.857 3.857 0 1 0 12 9a3.857 3.857 0 0 0 0 7.714Z"/>
</svg>
