<svg xmlns="http://www.w3.org/2000/svg" width="50" height="50" fill="none" viewBox="0 0 50 50">
  <path fill="#021129" d="M25.001 4.167C13.514 4.167 4.168 13.513 4.168 25v8.632c0 2.133 1.869 3.868 4.167 3.868h2.083a2.083 2.083 0 0 0 2.083-2.083V24.702a2.083 2.083 0 0 0-2.083-2.083H8.526c1.159-8.062 8.096-14.285 16.475-14.285 8.38 0 15.317 6.223 16.475 14.285h-1.891a2.083 2.083 0 0 0-2.084 2.083V37.5a4.17 4.17 0 0 1-4.166 4.167h-4.167v-2.083h-8.333v6.25h12.5c4.596 0 8.333-3.738 8.333-8.334 2.298 0 4.167-1.735 4.167-3.868V25c0-11.487-9.346-20.833-20.834-20.833Z"/>
</svg>
