<svg xmlns="http://www.w3.org/2000/svg" width="40" height="50" fill="none" viewBox="0 0 40 50">
  <path fill="#021129" d="M34.638 19.442v-5.984h-1.952a7.616 7.616 0 0 0 2.711-5.827C35.397 3.423 31.974 0 27.766 0c-3.128 0-5.821 1.892-6.998 4.592C19.59 1.892 16.898 0 13.77 0 9.562 0 6.139 3.423 6.139 7.631a7.617 7.617 0 0 0 2.71 5.827H6.43v5.02l-5.77-.987v13.23l5.77-.988v4.88h9.075L8.55 50h4.763l4.87-10.933V50h4.488V38.122L28.112 50h4.763l-6.956-15.386h8.72v-5.556h4.7v-9.616h-4.7Zm-13.87-8.771a7.669 7.669 0 0 0 2.077 2.787H18.69a7.666 7.666 0 0 0 2.078-2.787ZM28.344 25.7c-1.224 2.08-7.638 6.245-7.638 6.245s-6.437-4.183-7.653-6.245c-.61-1.033-1.041-2.172-.97-3.67.127-2.65 2.068-4.84 4.444-4.84 2.442 0 4.172 1.946 4.172 1.946s1.834-1.945 4.172-1.945c2.376 0 4.316 2.189 4.443 4.84.072 1.497-.36 2.632-.97 3.669Z"/>
</svg>
