<?xml version="1.0" encoding="utf-8"?>
<svg viewBox="125.412 0.098 25.63 21.166" fill="none" xmlns="http://www.w3.org/2000/svg">
  <path fill-rule="evenodd" clip-rule="evenodd" d="M148.127 2.54211C149.211 2.83402 150.066 3.68888 150.358 4.7731C150.9 6.75389 150.879 10.8823 150.879 10.8823C150.879 10.8823 150.879 14.9898 150.358 16.9706C150.066 18.0548 149.211 18.9097 148.127 19.2016C146.146 19.7228 138.223 19.7228 138.223 19.7228C138.223 19.7228 130.32 19.7228 128.319 19.1807C127.234 18.8888 126.38 18.034 126.088 16.9497C125.566 14.9898 125.566 10.8614 125.566 10.8614C125.566 10.8614 125.566 6.75389 126.088 4.7731C126.38 3.68888 127.255 2.81317 128.319 2.52126C130.299 2 138.223 2 138.223 2C138.223 2 146.146 2 148.127 2.54211ZM142.288 10.7166L135.699 14.5114V6.92188L142.288 10.7166Z" fill="#DCEAFD" transform="matrix(1, 0, 0, 1, 1.4210854715202004e-14, 0)"/>
</svg>